<svg width="24" height="24" viewBox="0 0 24 24" fill="none" xmlns="http://www.w3.org/2000/svg">
  <path d="M12 8.75A3.25 3.25 0 1 0 12 15.25A3.25 3.25 0 1 0 12 8.75Z" stroke="#A1A1AA" stroke-width="1.7"/>
  <path d="M19.1 13.5L20 12L19.1 10.5L17.2 10.2C17 9.63 16.74 9.1 16.38 8.64L16.92 6.78L15.22 5.08L13.36 5.62C12.9 5.26 12.37 5 11.8 4.8L11.5 2.9H9.5L9.2 4.8C8.63 5 8.1 5.26 7.64 5.62L5.78 5.08L4.08 6.78L4.62 8.64C4.26 9.1 4 9.63 3.8 10.2L1.9 10.5L1 12L1.9 13.5L3.8 13.8C4 14.37 4.26 14.9 4.62 15.36L4.08 17.22L5.78 18.92L7.64 18.38C8.1 18.74 8.63 19 9.2 19.2L9.5 21.1H11.5L11.8 19.2C12.37 19 12.9 18.74 13.36 18.38L15.22 18.92L16.92 17.22L16.38 15.36C16.74 14.9 17 14.37 17.2 13.8L19.1 13.5Z" stroke="#A1A1AA" stroke-width="1.4" stroke-linejoin="round"/>
</svg>
